<svg width="218" height="80" viewBox="0 0 218 80" fill="none" xmlns="http://www.w3.org/2000/svg">
<path d="M120.067 4.5C109.834 4.5 101.384 8.86766 95.6086 15.7346C95.5412 15.2926 95.4443 14.8528 95.3165 14.4165C94.6591 12.1723 93.2878 10.3784 91.5981 9.04177C88.3369 6.46211 83.7271 5.41176 79.0527 5.41176C74.211 5.41176 69.91 6.39253 66.5399 8.79061C64.1549 10.4877 62.4892 12.7136 61.4294 15.2725C60.9305 13.3866 60.1313 11.5472 58.9258 9.95249C56.8476 7.20313 53.708 5.41176 49.7358 5.41176C45.7635 5.41176 42.624 7.20313 40.5457 9.95249C39.5789 11.2314 38.8735 12.6678 38.3746 14.1594C37.324 12.0586 35.781 10.1868 33.6716 8.71203C30.445 6.45634 26.2998 5.41176 21.4712 5.41176C15.6526 5.41176 10.7166 7.2017 7.60377 10.7008C4.41791 14.2821 3.71715 19.0409 5.35642 23.4326C6.5191 26.8489 8.10967 29.8255 9.56853 32.5555C9.60091 32.6161 9.63322 32.6766 9.66547 32.7369C11.1935 35.597 12.6199 38.288 13.7714 41.5021C14.921 44.787 15.5444 47.9694 16.1858 51.3445C16.2078 51.46 16.2298 51.576 16.2519 51.6923C16.8555 54.8726 17.5118 58.3303 18.7324 61.7122C19.7977 64.7849 21.1411 68.0728 23.4999 70.5392C26.1186 73.2773 29.5483 74.5882 33.7994 74.5882C41.7407 74.5882 46.4969 68.5292 48.8645 61.7175C49.1921 60.8157 49.4792 59.9033 49.7356 58.9883C49.9925 59.9036 50.2797 60.8164 50.6072 61.7178C52.9748 68.5294 57.731 74.5882 65.6722 74.5882C69.9296 74.5882 73.3438 73.2716 75.9324 70.5012C78.2393 68.0323 79.54 64.7382 80.5888 61.7122C81.8094 58.3303 82.4657 54.8726 83.0693 51.6923C83.0914 51.576 83.1134 51.46 83.1353 51.3445C83.7767 47.9695 84.4002 44.7872 85.5497 41.5024C86.0322 40.1559 86.6014 38.81 87.2301 37.4514C87.1784 38.2945 87.1522 39.1444 87.1522 40C87.1522 59.16 100.274 75.5 120.067 75.5C131.591 75.5 140.93 69.873 146.676 61.3452C147.836 67.6072 153.784 74.5882 163.296 74.5882C168.484 74.5882 173.065 73.2488 176.525 70.3432C177.963 69.1361 179.124 67.7281 180.026 66.1697C180.93 67.7361 182.101 69.1473 183.549 70.3541C187.027 73.2521 191.64 74.5882 196.822 74.5882C207.544 74.5882 213.5 65.7623 213.5 59.1471C213.5 55.7515 212.658 52.8388 211.08 50.4087C209.527 48.0169 207.437 46.3641 205.349 45.1719C203.286 43.9937 201.086 43.1884 199.175 42.5621C198.33 42.285 197.596 42.0579 196.925 41.8505C195.921 41.5399 195.061 41.2738 194.186 40.9506C193.368 40.6418 192.864 40.3261 192.574 40.0936C192.869 39.8459 193.387 39.5094 194.23 39.1847L194.291 39.161L194.352 39.1356C195.323 38.7287 196.366 38.3813 197.625 37.9619C198.123 37.7959 198.655 37.6186 199.23 37.4219C201.105 36.7806 203.289 35.9739 205.332 34.8187C207.401 33.6491 209.496 32.03 211.059 29.6695C212.651 27.2645 213.5 24.3771 213.5 21.0049C213.5 14.2756 207.579 5.41176 196.822 5.41176C191.64 5.41176 187.027 6.74792 183.549 9.64588C182.101 10.8527 180.93 12.2639 180.026 13.8303C179.124 12.2719 177.963 10.8639 176.525 9.65677C173.065 6.75123 168.484 5.41176 163.296 5.41176C153.799 5.41176 147.888 12.354 146.692 18.679C140.947 10.1377 131.602 4.5 120.067 4.5ZM154.618 45.1719C153.886 45.5898 153.154 46.0643 152.445 46.6075C152.799 44.4587 152.982 42.249 152.982 40C152.982 37.7495 152.799 35.5382 152.444 33.3881C153.161 33.9305 153.9 34.403 154.635 34.8187C156.678 35.9739 158.863 36.7806 160.737 37.4219C161.312 37.6186 161.844 37.7958 162.343 37.9618C163.602 38.3812 164.645 38.7287 165.616 39.1356L165.676 39.161L165.738 39.1847C166.581 39.5094 167.099 39.8458 167.393 40.0936C167.103 40.3261 166.6 40.6418 165.782 40.9506C164.906 41.2738 164.046 41.54 163.042 41.8505C162.372 42.0579 161.637 42.285 160.792 42.5621C158.882 43.1884 156.681 43.9937 154.618 45.1719ZM122.88 40.1644L122.886 40.196L122.893 40.2274C123.94 44.8829 124.114 48.9168 123.685 51.6233C123.566 52.3739 123.414 52.9327 123.271 53.3321C122.767 52.8986 122.121 52.1702 121.401 51.0595C119.735 48.4864 118.137 44.5756 117.092 39.9322C116.043 35.1904 115.872 31.1274 116.315 28.4155C116.447 27.6062 116.616 27.0229 116.773 26.6225C117.284 27.058 117.951 27.8121 118.691 28.9797C120.344 31.5879 121.908 35.5335 122.88 40.1644ZM123.91 53.7678C123.921 53.7703 123.926 53.7723 123.926 53.7727C123.926 53.773 123.921 53.7718 123.91 53.7678ZM116.18 26.2241C116.18 26.2238 116.185 26.2252 116.196 26.2294C116.186 26.2266 116.18 26.2245 116.18 26.2241Z" stroke="#0101FE" stroke-width="9"/>
</svg>
